<font id="Liberation Sans" horiz-adv-x="1194" ><font-face
    font-family="Liberation Sans"
    units-per-em="2048"
    panose-1="2 11 6 4 2 2 2 2 2 4"
    ascent="1854"
    descent="-434"
    alphabetic="0" />
<missing-glyph horiz-adv-x="1536" d="M205 1409H1330V0H205V1409ZM281 1333V76H1254V1333H281Z" />
<glyph unicode=" " glyph-name="space" horiz-adv-x="569" />
<glyph unicode="!" glyph-name="exclam" horiz-adv-x="569" d="M359 397H211L187 1409H383L359 397ZM185 0V201H379V0H185Z" />
<glyph unicode="&quot;" glyph-name="quotedbl" horiz-adv-x="727" d="M618 966H476L456 1409H640L618 966ZM249 966H108L87 1409H271L249 966Z" />
<glyph unicode="#" glyph-name="numbersign" horiz-adv-x="1139" d="M896 885L818 516H1078V408H795L707 0H597L683 408H320L236 0H126L210 408H9V516H234L312 885H60V993H334L423 1401H533L445 993H808L896 1401H1006L918 993H1129V885H896ZM425 885L345 516H707L785
885H425Z" />
<glyph unicode="$" glyph-name="dollar" horiz-adv-x="1139" d="M518 20Q301 29 179 121T22 379L192 416Q203 363 226 320T288 244T383 193T518 168V664L498 669Q421 687 347 712T215 778T122 884T86 1046Q86 1130 118 1192T207 1295T344 1359T518 1385V1516H642V1385Q742
1380 814 1358T938 1295T1022 1198T1075 1065L901 1032Q881 1126 820 1178T642 1242V797Q701 783 758 768T866 733T962 684T1038 617T1088 523T1106 396Q1106 319 1078 254T993 138T849 57T642 20V-142H518V20ZM934 394Q934 457 911 497T847 562T753 604T642 635V167Q707
171 761 186T853 230T913 298T934 394ZM258 1048Q258 994 278 957T333 895T415 854T518 823V1244Q446 1240 396 1224T316 1181T272 1121T258 1048Z" />
<glyph unicode="%" glyph-name="percent" horiz-adv-x="1821" d="M1748 434Q1748 309 1723 224T1654 86T1552 11T1428 -12Q1362 -12 1305 10T1205 85T1138 222T1113 434Q1113 567 1137 654T1204 792T1305 864T1432 885Q1498 885 1555 865T1655 793T1723 654T1748
434ZM527 0H372L1294 1409H1451L527 0ZM394 1421Q458 1421 515 1401T615 1329T682 1192T707 975Q707 849 682 763T615 624T514 547T390 524Q323 524 265 547T165 623T98 762T73 975Q73 1106 97 1192T165 1329T267 1400T394 1421ZM1600 434Q1600 533 1589 598T1557
703T1504 758T1432 774Q1390 774 1358 758T1304 702T1271 598T1260 434Q1260 339 1271 275T1304 172T1357 115T1430 98Q1469 98 1500 115T1554 171T1588 275T1600 434ZM560 975Q560 1073 549 1138T517 1242T465 1297T394 1313Q351 1313 319 1297T264 1241T231 1137T220
975Q220 880 231 815T264 711T318 654T392 637Q430 637 461 654T514 710T548 815T560 975Z" />
<glyph unicode="&amp;" glyph-name="ampersand" horiz-adv-x="1366" d="M1193 -12Q1097 -12 1025 21T895 115Q865 89 827 65T743 22T642 -8T523 -20Q406 -20 321 10T180 92T99 216T72 371Q72 450 97 514T168 631T277 725T415 800Q397 834 383 872T357 950T340
1028T334 1102Q334 1168 354 1225T416 1325T525 1392T685 1417Q758 1417 819 1398T926 1343T996 1254T1021 1133Q1021 1058 988 1000T899 895T769 812T612 741Q674 627 747 527T905 329Q966 419 1006 518T1076 739L1221 696Q1186 557 1133 444T1009 227Q1062 173
1115 151T1217 129Q1249 129 1278 132T1334 145V10Q1306 -1 1269 -6T1193 -12ZM869 1133Q869 1170 856 1200T818 1251T760 1284T683 1296Q587 1296 537 1245T487 1102Q487 1043 505 979T552 858Q617 884 675 911T776 971T844 1043T869 1133ZM795 217Q706 322 624
437T476 674Q363 626 302 552T240 373Q240 318 257 271T311 188T401 132T529 111Q573 111 612 120T686 145T747 179T795 217Z" />
<glyph unicode="&apos;" glyph-name="quotesingle" horiz-adv-x="391" d="M266 966H125L104 1409H288L266 966Z" />
<glyph unicode="(" glyph-name="parenleft" horiz-adv-x="682" d="M127 532Q127 671 148 798T214 1042T329 1269T496 1484H670Q576 1379 508 1269T395 1041T330 796T308 530Q308 391 329 264T395 19T507 -209T670 -424H496Q399 -319 329 -209T214 18T148 261T127
528V532Z" />
<glyph unicode=")" glyph-name="parenright" horiz-adv-x="682" d="M555 528Q555 388 534 262T468 18T353 -209T186 -424H12Q106 -319 174 -209T287 19T352 264T374 530Q374 669 353 796T287 1040T175 1268T12 1484H186Q283 1379 353 1269T468 1042T534 798T555 532V528Z" />
<glyph unicode="*" glyph-name="asterisk" horiz-adv-x="797" d="M456 1114L720 1217L765 1085L483 1012L668 762L549 690L399 948L243 692L124 764L313 1012L33 1085L78 1219L345 1112L333 1409H469L456 1114Z" />
<glyph unicode="+" glyph-name="plus" horiz-adv-x="1196" d="M671 608V180H524V608H100V754H524V1182H671V754H1095V608H671Z" />
<glyph unicode="," glyph-name="comma" horiz-adv-x="569" d="M385 219V51Q385 -2 381 -45T366 -126T342 -197T307 -262H184Q229 -197 253 -131T278 0H190V219H385Z" />
<glyph unicode="-" glyph-name="hyphen" horiz-adv-x="682" d="M91 464V624H591V464H91Z" />
<glyph unicode="." glyph-name="period" horiz-adv-x="569" d="M187 0V219H382V0H187Z" />
<glyph unicode="/" glyph-name="slash" horiz-adv-x="569" d="M0 -20L411 1484H569L162 -20H0Z" />
<glyph unicode="0" glyph-name="zero" horiz-adv-x="1139" d="M1059 705Q1059 502 1021 364T916 140T759 17T567 -20Q464 -20 375 17T221 139T118 362T80 705Q80 918 117 1057T221 1280T377 1396T573 1430Q674 1430 762 1397T917 1280T1021 1058T1059 705ZM876
705Q876 873 856 984T797 1162T702 1256T573 1284Q497 1284 439 1256T342 1162T282 984T262 705Q262 543 282 432T342 254T439 157T569 127Q640 127 697 156T793 253T854 432T876 705Z" />
<glyph unicode="1" glyph-name="one" horiz-adv-x="1139" d="M156 0V153H515V1237L197 1010V1180L530 1409H696V153H1039V0H156Z" />
<glyph unicode="2" glyph-name="two" horiz-adv-x="1139" d="M103 0V127Q154 244 227 333T382 495T542 630T686 754T789 884T829 1038Q829 1098 811 1143T759 1220T678 1266T572 1282Q518 1282 471 1267T386 1222T326 1148T295 1044L111 1061Q120 1137 153 1204T244
1321T383 1401T572 1430Q677 1430 759 1405T897 1331T984 1210T1014 1044Q1014 973 989 909T921 787T822 675T705 570T582 468T466 366T368 263T301 153H1036V0H103Z" />
<glyph unicode="3" glyph-name="three" horiz-adv-x="1139" d="M1049 389Q1049 292 1018 216T926 88T776 8T571 -20Q440 -20 351 12T203 98T116 220T78 362L264 379Q272 323 293 277T352 198T443 147T571 129Q707 129 784 196T862 395Q862 473 828 520T742 594T630
630T518 639H416V795H514Q565 795 620 805T720 843T795 918T825 1038Q825 1151 759 1216T561 1282Q442 1282 369 1221T283 1049L102 1063Q113 1156 153 1225T254 1339T395 1407T563 1430Q681 1430 766 1401T905 1321T984 1202T1010 1057Q1010 995 993 941T940 844T849
770T715 723V719Q800 710 863 681T967 607T1028 507T1049 389Z" />
<glyph unicode="4" glyph-name="four" horiz-adv-x="1139" d="M881 319V0H711V319H47V459L692 1409H881V461H1079V319H881ZM711 1206Q709 1201 701 1187T683 1154T663 1118T644 1087L283 555Q278 547 269 534T249 508T229 481T213 461H711V1206Z" />
<glyph unicode="5" glyph-name="five" horiz-adv-x="1139" d="M1053 459Q1053 353 1021 265T926 114T770 15T553 -20Q442 -20 360 6T220 77T130 184T82 315L264 336Q275 296 295 259T349 192T434 145T557 127Q627 127 684 148T781 212T844 315T866 455Q866 520
845 574T785 668T690 730T561 752Q516 752 478 744T408 722T349 690T299 651H123L170 1409H971V1256H334L307 809Q355 846 427 872T598 899Q703 899 787 867T930 777T1021 637T1053 459Z" />
<glyph unicode="6" glyph-name="six" horiz-adv-x="1139" d="M1049 461Q1049 355 1020 267T933 115T790 16T594 -20Q471 -20 379 27T226 162T135 379T104 672Q104 860 138 1002T238 1239T396 1382T608 1430Q680 1430 743 1415T857 1367T948 1278T1010 1143L838
1112Q810 1203 749 1243T606 1284Q532 1284 472 1249T370 1145T306 970T283 725Q332 816 421 863T625 911Q721 911 799 880T932 791T1018 649T1049 461ZM866 453Q866 526 848 585T794 685T705 749T582 772Q533 772 483 758T393 711T327 625T301 496Q301 418 321
351T378 233T469 154T588 125Q653 125 704 147T792 212T847 316T866 453Z" />
<glyph unicode="7" glyph-name="seven" horiz-adv-x="1139" d="M1036 1263Q930 1101 841 952T688 651T589 340T553 0H365Q365 169 405 331T513 650T671 958T862 1256H105V1409H1036V1263Z" />
<glyph unicode="8" glyph-name="eight" horiz-adv-x="1139" d="M1050 393Q1050 303 1022 228T935 97T785 11T570 -20Q446 -20 356 11T206 96T118 226T89 391Q89 468 112 528T175 631T265 701T370 737V741Q311 755 265 786T187 860T139 957T122 1069Q122 1143 150
1208T235 1323T374 1401T566 1430Q681 1430 765 1401T905 1323T988 1207T1015 1067Q1015 1009 999 956T951 860T873 786T765 743V739Q826 729 878 703T968 633T1028 529T1050 393ZM828 1057Q828 1110 815 1154T770 1229T689 1278T566 1296Q495 1296 446 1279T366
1230T320 1154T306 1057Q306 1015 317 971T357 891T437 832T568 809Q653 809 704 832T783 891T819 971T828 1057ZM863 410Q863 461 849 508T801 592T710 651T566 674Q487 674 432 652T342 592T291 507T275 406Q275 341 291 288T342 196T434 136T572 115Q654 115
710 136T800 195T848 288T863 410Z" />
<glyph unicode="9" glyph-name="nine" horiz-adv-x="1139" d="M1042 733Q1042 545 1007 404T905 168T745 27T532 -20Q451 -20 386 -4T270 48T183 139T125 274L297 301Q325 210 384 168T535 125Q608 125 668 159T771 263T838 436T864 680Q843 633 807 596T724 534T623
495T514 481Q418 481 341 515T209 612T126 761T96 956Q96 1065 127 1153T219 1302T366 1397T565 1430Q800 1430 921 1256T1042 733ZM846 907Q846 985 828 1054T773 1174T683 1254T559 1284Q494 1284 442 1261T354 1196T299 1092T279 956Q279 885 296 824T349 719T436
649T557 623Q607 623 658 640T751 692T819 780T846 907Z" />
<glyph unicode=":" glyph-name="colon" horiz-adv-x="569" d="M187 875V1082H382V875H187ZM187 0V207H382V0H187Z" />
<glyph unicode=";" glyph-name="semicolon" horiz-adv-x="569" d="M385 207V51Q385 -2 381 -45T366 -126T342 -197T307 -262H184Q229 -197 253 -131T278 0H190V207H385ZM190 875V1082H385V875H190Z" />
<glyph unicode="&lt;" glyph-name="less" horiz-adv-x="1196" d="M101 571V776L1096 1194V1040L238 674L1096 307V154L101 571Z" />
<glyph unicode="=" glyph-name="equal" horiz-adv-x="1196" d="M100 856V1004H1095V856H100ZM100 344V492H1095V344H100Z" />
<glyph unicode="&gt;" glyph-name="greater" horiz-adv-x="1196" d="M101 154V307L959 674L101 1040V1194L1096 776V571L101 154Z" />
<glyph unicode="?" glyph-name="question" horiz-adv-x="1139" d="M1063 1032Q1063 961 1045 907T995 811T925 735T844 671T764 612T693 549T642 474T621 377H446Q448 446 467 498T518 590T588 661T667 721T745 778T814 842T862 921T881 1024Q881 1083 860 1129T801
1206T708 1254T586 1270Q446 1270 364 1200T268 1008L84 1020Q95 1104 128 1178T222 1309T372 1397T584 1430Q698 1430 787 1402T937 1323T1031 1197T1063 1032ZM438 0V201H633V0H438Z" />
<glyph unicode="@" glyph-name="at" horiz-adv-x="2079" d="M1902 755Q1902 611 1869 492T1776 286T1635 152T1455 104Q1399 104 1360 117T1295 154T1259 210T1248 280Q1248 295 1249 316T1251 350H1245Q1221 305 1187 261T1106 182T1001 126T871 104Q787 104
725 133T622 213T561 335T541 489Q541 609 576 719T678 914T836 1050T1043 1101Q1103 1101 1151 1088T1235 1050T1299 993T1344 919H1350L1389 1079H1545L1429 573Q1410 489 1401 429T1392 320Q1392 272 1413 249T1473 226Q1535 226 1588 266T1681 378T1743 545T1766
753Q1766 882 1725 993T1603 1185T1403 1312T1128 1358Q994 1358 881 1326T675 1236T514 1098T397 921T326 716T302 491Q302 350 345 231T470 27T674 -107T954 -155Q1059 -155 1150 -139T1317 -98T1453 -46T1557 7L1612 -105Q1562 -135 1495 -166T1344 -224T1163
-266T954 -283Q764 -283 617 -226T368 -65T214 180T161 491Q161 630 192 758T283 996T427 1196T619 1350T854 1449T1126 1484Q1327 1484 1473 1425T1714 1266T1856 1034T1902 755ZM1296 747Q1296 797 1279 839T1231 911T1155 957T1054 974Q968 974 903 932T795
820T729 665T706 491Q706 371 753 303T900 235Q969 235 1029 266T1137 348T1220 465T1273 602Q1282 638 1289 678T1296 747Z" />
<glyph unicode="A" glyph-name="A" horiz-adv-x="1366" d="M1167 0L1006 412H364L202 0H4L579 1409H796L1362 0H1167ZM768 1026Q752 1066 738 1107T712 1181T694 1237T685 1265Q683 1260 676 1237T658 1180T632 1105T602 1024L422 561H949L768 1026Z" />
<glyph unicode="B" glyph-name="B" horiz-adv-x="1366" d="M1258 397Q1258 290 1216 215T1103 92T938 22T740 0H168V1409H680Q797 1409 889 1390T1045 1328T1142 1222T1176 1067Q1176 1008 1160 956T1110 862T1026 789T908 743Q993 733 1058 704T1168 630T1235
526T1258 397ZM984 1044Q984 1158 906 1207T680 1256H359V810H680Q764 810 822 826T916 873T968 947T984 1044ZM1065 412Q1065 479 1041 526T970 603T860 647T715 661H359V153H730Q803 153 864 165T970 207T1040 287T1065 412Z" />
<glyph unicode="C" glyph-name="C" horiz-adv-x="1479" d="M792 1274Q672 1274 580 1234T425 1120T330 942T298 711Q298 584 332 479T431 297T589 179T800 137Q882 137 949 158T1071 219T1169 311T1245 430L1401 352Q1363 273 1307 205T1176 87T1005 9T791 -20Q620
-20 492 34T277 186T147 418T104 711Q104 876 149 1009T282 1235T498 1379T790 1430Q1015 1430 1166 1342T1388 1081L1207 1021Q1187 1071 1153 1116T1068 1197T949 1253T792 1274Z" />
<glyph unicode="D" glyph-name="D" horiz-adv-x="1479" d="M1381 719Q1381 543 1328 409T1183 184T966 47T695 0H168V1409H634Q797 1409 934 1369T1171 1244T1325 1029T1381 719ZM1189 719Q1189 862 1148 963T1033 1130T856 1225T630 1256H359V153H673Q784 153
878 189T1042 296T1150 473T1189 719Z" />
<glyph unicode="E" glyph-name="E" horiz-adv-x="1366" d="M168 0V1409H1237V1253H359V801H1177V647H359V156H1278V0H168Z" />
<glyph unicode="F" glyph-name="F" horiz-adv-x="1251" d="M359 1253V729H1145V571H359V0H168V1409H1169V1253H359Z" />
<glyph unicode="G" glyph-name="G" horiz-adv-x="1593" d="M103 711Q103 876 147 1009T280 1235T500 1379T804 1430Q934 1430 1032 1407T1202 1341T1324 1237T1409 1098L1227 1044Q1201 1096 1165 1138T1076 1211T956 1257T799 1274Q671 1274 577 1234T420 1120T328
942T297 711Q297 584 330 479T428 297T589 178T813 135Q896 135 966 149T1092 185T1192 235T1264 291V545H843V705H1440V219Q1393 171 1330 128T1187 51T1014 -1T813 -20Q635 -20 502 34T281 186T148 418T103 711Z" />
<glyph unicode="H" glyph-name="H" horiz-adv-x="1479" d="M1121 0V653H359V0H168V1409H359V813H1121V1409H1312V0H1121Z" />
<glyph unicode="I" glyph-name="I" horiz-adv-x="569" d="M189 0V1409H380V0H189Z" />
<glyph unicode="J" glyph-name="J" horiz-adv-x="1024" d="M457 -20Q286 -20 177 69T32 350L219 381Q229 316 252 270T307 193T378 149T458 135Q562 135 622 206T682 416V1253H411V1409H872V420Q872 319 844 238T763 100T632 11T457 -20Z" />
<glyph unicode="K" glyph-name="K" horiz-adv-x="1366" d="M1106 0L543 680L359 540V0H168V1409H359V703L1038 1409H1263L663 797L1343 0H1106Z" />
<glyph unicode="L" glyph-name="L" horiz-adv-x="1139" d="M168 0V1409H359V156H1071V0H168Z" />
<glyph unicode="M" glyph-name="M" horiz-adv-x="1706" d="M1366 0V940Q1366 991 1367 1044T1370 1141Q1372 1192 1375 1240Q1361 1189 1346 1139Q1333 1096 1318 1048T1287 960L923 0H789L420 960Q414 975 408 995T394 1037T379 1083T364 1130Q347 1183 331 1240Q332
1184 334 1129Q336 1082 337 1031T338 940V0H168V1409H419L794 432Q801 412 811 381T830 316T846 254T857 208Q860 224 868 254T886 317T907 381T925 432L1293 1409H1538V0H1366Z" />
<glyph unicode="N" glyph-name="N" horiz-adv-x="1479" d="M1082 0L328 1200Q330 1151 333 1103Q335 1062 336 1017T338 936V0H168V1409H390L1152 201Q1149 250 1146 299Q1144 341 1142 390T1140 485V1409H1312V0H1082Z" />
<glyph unicode="O" glyph-name="O" horiz-adv-x="1593" d="M1495 711Q1495 546 1448 411T1310 180T1090 32T795 -20Q621 -20 490 34T272 186T141 418T97 711Q97 876 143 1009T278 1235T497 1379T797 1430Q965 1430 1095 1379T1314 1234T1449 1007T1495 711ZM1300
711Q1300 838 1268 942T1172 1120T1014 1234T797 1274Q671 1274 576 1234T418 1120T323 942T291 711Q291 584 323 479T419 297T577 178T795 135Q927 135 1022 178T1179 297T1270 480T1300 711Z" />
<glyph unicode="P" glyph-name="P" horiz-adv-x="1366" d="M1258 985Q1258 893 1228 814T1137 676T985 583T773 549H359V0H168V1409H761Q886 1409 979 1379T1134 1293T1227 1159T1258 985ZM1066 983Q1066 1117 984 1186T738 1256H359V700H746Q911 700 988 773T1066 983Z" />
<glyph unicode="Q" glyph-name="Q" horiz-adv-x="1593" d="M1495 711Q1495 562 1457 439T1346 222T1168 71T928 -6Q949 -70 975 -115T1036 -188T1111 -230T1204 -244Q1232 -244 1264 -240T1319 -231V-365Q1281 -374 1236 -380T1141 -387Q1055 -387 991 -362T879
-289T795 -172T733 -16Q575 -8 456 49T257 203T137 429T97 711Q97 876 143 1009T278 1235T497 1379T797 1430Q965 1430 1095 1379T1314 1234T1449 1007T1495 711ZM1300 711Q1300 838 1268 942T1172 1120T1014 1234T797 1274Q671 1274 576 1234T418 1120T323 942T291
711Q291 584 323 479T419 297T577 178T795 135Q927 135 1022 178T1179 297T1270 480T1300 711Z" />
<glyph unicode="R" glyph-name="R" horiz-adv-x="1479" d="M1164 0L798 585H359V0H168V1409H831Q951 1409 1043 1382T1199 1302T1295 1175T1328 1006Q1328 939 1309 874T1247 755T1140 662T984 607L1384 0H1164ZM1136 1004Q1136 1068 1114 1115T1050 1193T948
1240T812 1256H359V736H820Q902 736 962 756T1060 813T1117 898T1136 1004Z" />
<glyph unicode="S" glyph-name="S" horiz-adv-x="1366" d="M1272 389Q1272 300 1238 225T1131 96T950 11T690 -20Q427 -20 280 72T93 338L278 375Q292 320 321 275T399 198T522 147T697 129Q782 129 853 143T975 188T1054 265T1083 379Q1083 448 1052 491T963
562T827 609T652 650Q593 663 534 678T420 715T317 766T234 835T179 929T159 1053Q159 1153 199 1224T312 1342T482 1409T694 1430Q825 1430 918 1410T1075 1348T1177 1247T1239 1106L1051 1073Q1037 1124 1011 1164T941 1231T837 1272T692 1286Q594 1286 528 1269T421
1221T363 1151T345 1063Q345 1000 376 960T462 892T587 847T738 811Q803 796 867 781T991 744T1101 693T1191 622T1250 523T1272 389Z" />
<glyph unicode="T" glyph-name="T" horiz-adv-x="1251" d="M720 1253V0H530V1253H46V1409H1204V1253H720Z" />
<glyph unicode="U" glyph-name="U" horiz-adv-x="1479" d="M731 -20Q615 -20 511 11T329 107T204 273T158 512V1409H349V528Q349 421 377 347T457 225T577 157T730 135Q812 135 885 157T1013 227T1099 352T1131 541V1409H1321V530Q1321 389 1275 286T1148 114T961
13T731 -20Z" />
<glyph unicode="V" glyph-name="V" horiz-adv-x="1366" d="M782 0H584L9 1409H210L600 417Q615 372 630 328T657 248Q671 207 684 168Q696 205 710 246Q722 281 736 325T768 417L1156 1409H1357L782 0Z" />
<glyph unicode="W" glyph-name="W" horiz-adv-x="1933" d="M1511 0H1283L1039 895Q1028 933 1016 985T993 1084Q981 1139 969 1196Q956 1138 944 1083Q933 1035 921 984T898 895L652 0H424L9 1409H208L461 514Q478 451 493 389T520 278Q533 220 544 168Q559 237
575 304Q582 332 589 363T603 424T618 481T632 532L877 1409H1060L1305 532Q1311 509 1318 482T1333 425T1348 364T1362 305Q1378 238 1393 168Q1394 168 1402 202T1422 289T1448 401T1478 514L1727 1409H1926L1511 0Z" />
<glyph unicode="X" glyph-name="X" horiz-adv-x="1366" d="M1112 0L689 616L257 0H46L582 732L87 1409H298L690 856L1071 1409H1282L800 739L1323 0H1112Z" />
<glyph unicode="Y" glyph-name="Y" horiz-adv-x="1366" d="M777 584V0H587V584L45 1409H255L684 738L1111 1409H1321L777 584Z" />
<glyph unicode="Z" glyph-name="Z" horiz-adv-x="1251" d="M1187 0H65V143L923 1253H138V1409H1140V1270L282 156H1187V0Z" />
<glyph unicode="[" glyph-name="bracketleft" horiz-adv-x="569" d="M146 -425V1484H553V1355H320V-296H553V-425H146Z" />
<glyph unicode="\" glyph-name="backslash" horiz-adv-x="569" d="M407 -20L0 1484H158L569 -20H407Z" />
<glyph unicode="]" glyph-name="bracketright" horiz-adv-x="569" d="M16 -425V-296H249V1355H16V1484H423V-425H16Z" />
<glyph unicode="^" glyph-name="asciicircum" horiz-adv-x="961" d="M787 673L478 1306L172 673H10L378 1409H581L951 673H787Z" />
<glyph unicode="_" glyph-name="underscore" horiz-adv-x="1139" d="M-31 -407V-277H1162V-407H-31Z" />
<glyph unicode="`" glyph-name="grave" horiz-adv-x="682" d="M436 1201L106 1479V1508H313L530 1221V1201H436Z" />
<glyph unicode="a" glyph-name="a" horiz-adv-x="1139" d="M414 -20Q251 -20 169 66T87 302Q87 409 127 477T233 585T383 639T554 656L797 660V719Q797 786 783 833T740 909T668 951T565 965Q513 965 471 958T398 931T348 878T323 793L135 810Q145 874 173 927T252
1020T381 1080T569 1102Q773 1102 876 1009T979 738V272Q979 192 1000 152T1080 111Q1095 111 1110 113T1139 118V6Q1105 -2 1072 -6T1000 -10Q949 -10 913 3T853 44T818 112T803 207H797Q768 155 734 113T653 42T549 -4T414 -20ZM455 115Q541 115 605 146T712
227T776 334T797 445V534L600 530Q534 529 475 521T370 487T299 417T272 299Q272 211 319 163T455 115Z" />
<glyph unicode="b" glyph-name="b" horiz-adv-x="1139" d="M1053 546Q1053 -20 655 -20Q532 -20 451 24T318 168H316Q316 142 315 114T312 62T309 21T306 0H132Q133 9 134 30T136 82T137 148T138 223V1484H318V1061Q318 1031 318 1004T316 955Q315 930 314 908H318Q368
1012 450 1057T655 1102Q860 1102 956 964T1053 546ZM864 540Q864 652 850 732T805 863T726 939T609 963Q538 963 484 940T393 866T337 732T318 529Q318 413 337 334T392 206T483 135T607 113Q673 113 721 136T801 210T848 342T864 540Z" />
<glyph unicode="c" glyph-name="c" horiz-adv-x="1024" d="M275 546Q275 453 288 375T334 241T418 153T548 122Q644 122 708 174T788 334L970 322Q961 255 931 193T850 84T724 9T553 -20Q426 -20 337 23T193 141T112 319T87 542Q87 651 105 734T155 880T232 985T327
1053T436 1090T551 1102Q642 1102 713 1077T835 1009T919 906T964 779L779 765Q765 855 708 908T546 961Q469 961 418 936T334 859T289 729T275 546Z" />
<glyph unicode="d" glyph-name="d" horiz-adv-x="1139" d="M821 174Q771 70 689 25T484 -20Q279 -20 183 118T86 536Q86 1102 484 1102Q607 1102 689 1057T821 914H823Q823 924 823 945T822 990T821 1035T821 1065V1484H1001V223Q1001 184 1001 148T1003 82T1005
31T1007 0H835Q833 10 832 28T829 71T826 121T825 174H821ZM275 542Q275 430 289 350T334 219T413 143T530 119Q601 119 655 142T746 216T802 351T821 554Q821 669 802 748T746 877T656 947T532 969Q466 969 418 946T338 872T291 740T275 542Z" />
<glyph unicode="e" glyph-name="e" horiz-adv-x="1139" d="M276 503Q276 418 293 347T347 224T441 144T578 115Q695 115 765 162T861 281L1019 236Q1002 191 972 146T890 64T763 4T578 -20Q338 -20 213 123T87 548Q87 700 125 805T229 977T383 1072T571 1102Q707
1102 798 1058T945 937T1024 754T1048 527V503H276ZM862 641Q847 812 775 890T568 969Q523 969 474 955T382 903T311 803T278 641H862Z" />
<glyph unicode="f" glyph-name="f" horiz-adv-x="569" d="M361 951V0H181V951H29V1082H181V1204Q181 1263 192 1313T232 1401T313 1460T445 1482Q477 1482 511 1479T572 1470V1333Q555 1336 533 1338T492 1341Q452 1341 427 1330T387 1299T367 1248T361 1179V1082H572V951H361Z"
/>
<glyph unicode="g" glyph-name="g" horiz-adv-x="1139" d="M548 -425Q455 -425 383 -406T260 -352T177 -267T131 -158L312 -132Q330 -207 391 -247T553 -288Q614 -288 664 -271T749 -217T803 -119T822 27V201H820Q800 160 771 123T699 56T600 10T472 -8Q369 -8
296 26T176 130T108 301T86 539Q86 669 107 773T177 949T303 1060T492 1099Q607 1099 691 1047T822 897H824Q824 922 825 953T828 1011T832 1059T836 1082H1007Q1006 1073 1005 1052T1003 1000T1002 934T1001 858V31Q1001 -196 890 -310T548 -425ZM822 541Q822
654 798 734T733 866T642 941T536 965Q467 965 418 941T336 866T288 734T272 541Q272 424 287 345T335 216T416 146T533 125Q587 125 638 148T731 221T797 350T822 541Z" />
<glyph unicode="h" glyph-name="h" horiz-adv-x="1139" d="M317 897Q347 952 382 990T459 1054T551 1090T663 1102Q767 1102 833 1074T938 996T991 875T1006 721V0H825V686Q825 755 817 807T784 893T716 945T602 963Q538 963 487 940T399 875T342 773T322 638V0H142V1484H322V1098Q322
1065 321 1032T319 971T316 924T314 897H317Z" />
<glyph unicode="i" glyph-name="i" horiz-adv-x="455" d="M137 1312V1484H317V1312H137ZM137 0V1082H317V0H137Z" />
<glyph unicode="j" glyph-name="j" horiz-adv-x="455" d="M137 1312V1484H317V1312H137ZM317 -134Q317 -196 307 -249T269 -341T196 -402T77 -425Q43 -425 11 -423T-50 -416V-277Q-37 -279 -19 -281T12 -283Q50 -283 74 -273T113 -242T132 -187T137 -107V1082H317V-134Z" />
<glyph unicode="k" glyph-name="k" horiz-adv-x="1024" d="M816 0L450 494L318 385V0H138V1484H318V557L793 1082H1004L565 617L1027 0H816Z" />
<glyph unicode="l" glyph-name="l" horiz-adv-x="455" d="M138 0V1484H318V0H138Z" />
<glyph unicode="m" glyph-name="m" horiz-adv-x="1706" d="M768 0V686Q768 765 758 818T725 903T663 949T570 963Q513 963 467 941T389 876T339 771T321 627V0H142V851Q142 885 142 922T140 993T138 1051T136 1082H306Q307 1077 308 1055T310 1005T313 947T314
897H317Q341 944 369 982T434 1046T520 1087T633 1102Q756 1102 827 1053T927 897H930Q954 944 984 982T1054 1046T1144 1087T1258 1102Q1340 1102 1399 1080T1497 1012T1553 894T1571 721V0H1393V686Q1393 765 1383 818T1350 903T1288 949T1195 963Q1138 963 1092
942T1014 878T964 773T946 627V0H768Z" />
<glyph unicode="n" glyph-name="n" horiz-adv-x="1139" d="M825 0V686Q825 765 814 818T776 903T708 949T602 963Q538 963 487 941T399 876T342 771T322 627V0H142V851Q142 885 142 922T140 993T138 1051T136 1082H306Q307 1077 308 1055T310 1005T313 947T314
897H317Q343 944 374 982T446 1046T540 1087T663 1102Q753 1102 818 1080T925 1012T986 894T1006 721V0H825Z" />
<glyph unicode="o" glyph-name="o" horiz-adv-x="1139" d="M1053 542Q1053 258 928 119T565 -20Q452 -20 363 14T213 118T119 293T86 542Q86 1102 571 1102Q697 1102 788 1067T938 962T1025 787T1053 542ZM864 542Q864 668 845 750T788 881T696 949T574 969Q505
969 450 949T355 879T296 747T275 542Q275 416 297 334T357 202T448 133T563 113Q632 113 688 132T783 201T843 333T864 542Z" />
<glyph unicode="p" glyph-name="p" horiz-adv-x="1139" d="M1053 546Q1053 423 1033 319T967 140T844 23T655 -20Q539 -20 452 24T319 168H314Q315 166 315 150T316 110T317 57T318 -2V-425H138V861Q138 900 138 936T136 1001T134 1052T132 1082H306Q307 1079
308 1061T311 1018T314 963T316 908H320Q345 960 377 996T450 1056T541 1090T655 1101Q767 1101 843 1061T966 949T1033 774T1053 546ZM864 542Q864 642 852 720T811 852T732 934T609 962Q549 962 496 945T404 880T341 748T318 528Q318 413 337 334T392 205T483
135T607 113Q682 113 731 142T810 226T852 360T864 542Z" />
<glyph unicode="q" glyph-name="q" horiz-adv-x="1139" d="M484 -20Q278 -20 182 119T86 536Q86 818 184 960T484 1102Q551 1102 602 1090T694 1055T765 996T821 914H823Q823 939 824 969T827 1027T831 1073T835 1096H1008Q1006 1079 1004 1007T1001 801V-425H821V14Q821
40 821 68T823 121Q824 149 825 178H823Q797 127 766 90T693 28T601 -8T484 -20ZM821 554Q821 672 801 752T743 880T652 948T532 969Q463 969 414 944T335 866T290 733T275 542Q275 434 288 354T332 222T411 145T530 119Q590 119 643 137T735 204T798 337T821 554Z"
/>
<glyph unicode="r" glyph-name="r" horiz-adv-x="682" d="M142 0V830Q142 864 142 899T140 968T138 1030T136 1082H306Q307 1059 308 1030T311 969T313 910T314 861H318Q337 923 358 968T409 1043T478 1087T575 1102Q597 1102 617 1099T648 1092V927Q630 932 606
934T552 937Q490 937 447 909T376 832T335 714T322 564V0H142Z" />
<glyph unicode="s" glyph-name="s" horiz-adv-x="1024" d="M950 299Q950 223 921 164T835 64T698 2T511 -20Q417 -20 342 -6T209 41T114 125T57 254L216 285Q239 198 311 158T511 117Q569 117 617 125T701 152T755 204T775 285Q775 334 752 365T688 418T589 454T460
489Q395 506 331 527T216 582T132 668T100 796Q100 944 205 1021T513 1099Q692 1099 797 1036T931 834L769 814Q760 856 736 884T678 930T602 955T513 963Q391 963 333 926T275 814Q275 770 296 742T356 694T449 660T568 629Q611 618 656 606T743 576T823 535T889
478T933 401T950 299Z" />
<glyph unicode="t" glyph-name="t" horiz-adv-x="569" d="M554 8Q513 -3 471 -9T372 -16Q156 -16 156 229V951H31V1082H163L216 1324H336V1082H536V951H336V268Q336 190 361 159T450 127Q476 127 500 131T554 141V8Z" />
<glyph unicode="u" glyph-name="u" horiz-adv-x="1139" d="M314 1082V396Q314 317 325 264T363 179T431 133T537 119Q601 119 652 141T740 206T797 311T817 455V1082H997V231Q997 197 997 160T999 89T1001 31T1003 0H833Q832 5 831 27T829 77T826 135T825 185H822Q796
138 765 100T693 36T599 -5T476 -20Q386 -20 321 2T214 70T153 188T133 361V1082H314Z" />
<glyph unicode="v" glyph-name="v" horiz-adv-x="1024" d="M613 0H400L7 1082H199L437 378Q444 356 453 325T473 259T491 194T506 141Q512 162 521 193T541 258T561 322T580 376L826 1082H1017L613 0Z" />
<glyph unicode="w" glyph-name="w" horiz-adv-x="1479" d="M1174 0H965L792 698Q784 725 776 765T759 843Q749 887 740 934Q731 889 721 845Q713 807 704 766T686 694L508 0H300L-3 1082H175L358 347Q365 324 372 291T386 225Q393 188 401 149Q409 187 418 223Q426
254 434 286T448 339L644 1082H837L1026 339Q1033 313 1041 280T1056 218Q1064 184 1072 149Q1080 187 1088 223Q1095 254 1102 287T1117 347L1308 1082H1484L1174 0Z" />
<glyph unicode="x" glyph-name="x" horiz-adv-x="1024" d="M801 0L510 444L217 0H23L408 556L41 1082H240L510 661L778 1082H979L612 558L1002 0H801Z" />
<glyph unicode="y" glyph-name="y" horiz-adv-x="1024" d="M604 0Q566 -98 527 -176T438 -310T329 -395T191 -425Q157 -425 128 -423T67 -414V-279Q86 -282 110 -283T151 -285Q230 -285 298 -226T417 -38L434 5L5 1082H197L425 484Q435 457 450 412T481 322T509
241T523 196Q526 207 537 239T563 312T593 393T618 464L830 1082H1020L604 0Z" />
<glyph unicode="z" glyph-name="z" horiz-adv-x="1024" d="M49 0V137L710 943H89V1082H913V945L251 139H950V0H49Z" />
<glyph unicode="{" glyph-name="braceleft" horiz-adv-x="684" d="M513 -425Q448 -425 399 -405T316 -346T266 -254T249 -132V229Q249 292 235 336T193 408T125 450T34 466V593Q85 595 125 609T192 651T234 723T249 829V1191Q249 1332 315 1408T513 1484H648V1355H585Q494
1355 456 1302T417 1140V784Q417 734 402 692T361 618T300 564T223 532V530Q266 520 301 498T362 444T402 369T417 276V-81Q417 -187 455 -241T585 -296H648V-425H513Z" />
<glyph unicode="|" glyph-name="bar" horiz-adv-x="532" d="M183 -434V1484H349V-434H183Z" />
<glyph unicode="}" glyph-name="braceright" horiz-adv-x="684" d="M94 -296Q185 -296 224 -242T264 -81V276Q264 327 278 369T317 443T378 498T457 530V532Q415 542 380 564T319 618T279 692T264 784V1140Q264 1248 225 1301T94 1355H34V1484H166Q297 1484 363
1408T430 1191V829Q430 767 444 723T486 651T554 609T647 593V466Q595 464 555 450T487 408T445 336T430 229V-132Q430 -200 413 -254T363 -346T281 -404T166 -425H34V-296H94Z" />
<glyph unicode="~" glyph-name="asciitilde" horiz-adv-x="1196" d="M844 553Q775 553 703 575T557 623Q428 668 340 668Q302 668 270 662T207 645T149 617T92 580V723Q142 761 208 784T355 807Q395 807 435 801T513 784T589 761T664 735Q685 727 710 720T760
705T811 694T860 690Q929 690 990 715T1104 782V633Q1072 610 1043 595T983 571T918 557T844 553Z" />
</font>
</svg>
